<svg width="86" height="56" viewBox="0 0 86 56" fill="none" xmlns="http://www.w3.org/2000/svg">
<path d="M44.9517 10.7599C47.923 10.7599 50.3317 8.35124 50.3317 5.37997C50.3317 2.40869 47.923 0 44.9517 0C41.9805 0 39.5718 2.40869 39.5718 5.37997C39.5718 8.35124 41.9805 10.7599 44.9517 10.7599Z" fill="#0354F3"/>
<path d="M22.8188 5.97104C22.5133 6.37644 22.0867 6.67412 21.6008 6.82101C21.1148 6.96789 20.5948 6.95635 20.1159 6.78807C19.6369 6.61978 19.224 6.30348 18.9367 5.88493C18.6495 5.46638 18.5029 4.96729 18.5181 4.45988C18.5333 3.95248 18.7096 3.46308 19.0214 3.0625C19.3332 2.66192 19.7644 2.37094 20.2526 2.23167C20.7407 2.09239 21.2605 2.11205 21.7368 2.2878C22.213 2.46355 22.621 2.78626 22.9016 3.20925L22.1449 3.81132C22.018 3.59368 21.836 3.41327 21.6173 3.2882C21.3985 3.16313 21.1507 3.09781 20.8988 3.0988C20.6468 3.09978 20.3996 3.16703 20.1818 3.2938C19.9641 3.42057 19.7835 3.6024 19.6583 3.82102C19.533 4.03965 19.4675 4.28738 19.4683 4.53933C19.469 4.79129 19.5361 5.03861 19.6627 5.25646C19.7893 5.47431 19.971 5.65502 20.1895 5.78045C20.408 5.90588 20.6557 5.97161 20.9076 5.97104C21.2598 5.96938 21.5994 5.83982 21.8632 5.60649V5.33031H20.7585V4.38025H22.8298L22.8188 5.97104Z" fill="#1D1D1B"/>
<path d="M34.7994 6.92659H33.6947L32.8607 5.65064H32.0984V6.92659H31.1428V2.14869H32.8938C33.2755 2.1476 33.6471 2.27127 33.952 2.50086C34.2569 2.73045 34.4785 3.0534 34.5829 3.42052C34.6874 3.78765 34.669 4.17885 34.5306 4.53457C34.3922 4.89029 34.1413 5.19103 33.8162 5.39103L34.7994 6.92659ZM32.8717 4.71715C32.9762 4.71715 33.0796 4.69658 33.1761 4.65661C33.2726 4.61663 33.3603 4.55805 33.4341 4.48419C33.508 4.41033 33.5666 4.32264 33.6065 4.22614C33.6465 4.12964 33.6671 4.02621 33.6671 3.92176C33.6671 3.8173 33.6465 3.71387 33.6065 3.61737C33.5666 3.52087 33.508 3.43319 33.4341 3.35933C33.3603 3.28547 33.2726 3.22688 33.1761 3.18691C33.0796 3.14694 32.9762 3.12636 32.8717 3.12636H32.0984V4.69506L32.8717 4.71715Z" fill="#1D1D1B"/>
<path d="M46.178 6.44597H43.72L43.2892 7.24136H42.1844L44.9462 2.20386L47.708 7.24136H46.6033L46.178 6.44597ZM45.6588 5.49039L44.9518 4.19235L44.2447 5.49039H45.6588Z" fill="white"/>
<path d="M55.6233 2.14868H55.8774L58.8049 4.91047V2.14868H59.7604V6.92658H59.5008L56.5789 4.16479V6.92658H55.6233V2.14868Z" fill="#1D1D1B"/>
<path d="M68.3773 6.92653V2.14864H70.1503C70.4737 2.13308 70.7969 2.18335 71.1003 2.29638C71.4037 2.40942 71.6809 2.58288 71.9153 2.80624C72.1497 3.02961 72.3363 3.29823 72.4637 3.59583C72.5912 3.89344 72.6569 4.21383 72.6569 4.53758C72.6569 4.86134 72.5912 5.18173 72.4637 5.47934C72.3363 5.77694 72.1497 6.04556 71.9153 6.26893C71.6809 6.49229 71.4037 6.66575 71.1003 6.77879C70.7969 6.89182 70.4737 6.94209 70.1503 6.92653H68.3773ZM70.1503 5.97095C70.346 5.98311 70.5422 5.95505 70.7266 5.88852C70.9111 5.82198 71.08 5.71838 71.2229 5.58408C71.3658 5.44979 71.4796 5.28766 71.5575 5.10768C71.6353 4.92769 71.6755 4.73368 71.6755 4.53758C71.6755 4.34149 71.6353 4.14747 71.5575 3.96749C71.4796 3.78751 71.3658 3.62538 71.2229 3.49109C71.08 3.35679 70.9111 3.25319 70.7266 3.18665C70.5422 3.12011 70.346 3.09206 70.1503 3.10422H69.3549V5.97095H70.1503Z" fill="#1D1D1B"/>
<path d="M11.3794 30.1698C13.4745 26.6998 15.8385 23.3995 18.4496 20.2991C18.6565 20.0143 18.927 19.7816 19.2396 19.6195C19.5522 19.4575 19.8983 19.3706 20.2503 19.3657C20.7883 19.3756 21.309 19.5575 21.7361 19.8849C22.0276 20.0446 22.2709 20.2795 22.4409 20.5651C22.6109 20.8506 22.7013 21.1765 22.7028 21.5088C22.7157 21.778 22.6552 22.0456 22.5277 22.283C22.4003 22.5204 22.2107 22.7186 21.9792 22.8566C21.3311 23.2506 20.4105 24.2596 19.2174 25.8835C18.0243 27.5074 16.6121 29.4959 14.9808 31.849C16.468 31.8018 17.9378 31.5145 19.3334 30.9983C21.2721 30.3388 23.0978 29.3849 24.7465 28.1702C27.4156 26.2226 29.4536 23.5335 30.607 20.4372C30.9433 19.6056 31.1303 18.7212 31.1594 17.8246C31.1594 16.0092 30.0989 15.0996 27.9778 15.0959C25.9525 15.0959 23.6013 15.7588 20.9242 17.0844C18.1997 18.4434 15.6832 20.1843 13.4508 22.2545C11.3673 24.0856 9.67624 26.3197 8.47956 28.822C8.30443 29.1897 8.18172 29.5802 8.115 29.982C8.01706 30.3415 7.98893 30.7165 8.03215 31.0867V31.1916C8.03744 31.2462 8.0317 31.3013 8.01526 31.3536C7.99883 31.406 7.97203 31.4544 7.93647 31.4962C7.90091 31.5379 7.85731 31.5721 7.80827 31.5966C7.75923 31.6212 7.70575 31.6356 7.65102 31.6391C7.45702 31.6833 7.25896 31.7074 7.06 31.7109C6.26746 31.7082 5.49536 31.4592 4.85057 30.9983C4.54047 30.8266 4.27994 30.5777 4.09415 30.2758C3.90837 29.9739 3.80362 29.6292 3.79004 29.275C3.87298 27.6746 4.43277 26.1357 5.3974 24.8561C6.50437 23.2334 7.80253 21.7498 9.26391 20.4372C10.5588 19.2333 11.9519 18.1395 13.4287 17.1673C15.6055 15.7594 17.9636 14.6538 20.4381 13.8807C22.7923 13.1265 25.2463 12.7299 27.7182 12.7042C29.9276 12.7042 31.651 13.275 32.8883 14.4165C33.4954 14.9774 33.9748 15.6623 34.294 16.4247C34.6133 17.1871 34.7649 18.0093 34.7387 18.8354C34.7171 20.047 34.4698 21.244 34.0095 22.365C32.9404 24.9335 31.1982 27.1662 28.9665 28.8276C26.6377 30.6488 24.0252 32.0745 21.2335 33.0476C18.8413 33.9401 16.318 34.431 13.7656 34.5003H13.727C13.6008 34.8629 13.4438 35.214 13.2575 35.5498C12.2632 37.5051 11.4034 39.2911 10.6779 40.9076C10.0726 42.123 9.66963 43.429 9.48485 44.7741C9.48117 44.9242 9.49414 45.0743 9.52351 45.2215L9.55666 45.5364C9.55214 45.688 9.528 45.8384 9.48485 45.9838C9.45819 46.057 9.41706 46.124 9.36391 46.181C9.31077 46.2379 9.2467 46.2836 9.17553 46.3152C9.01365 46.3932 8.83599 46.4329 8.65631 46.4312C8.23677 46.4215 7.82423 46.3216 7.44665 46.1385C6.97123 45.9101 6.56516 45.5593 6.27013 45.1221C5.8972 44.5344 5.71579 43.8454 5.75091 43.1502C5.76719 42.2159 5.94279 41.2912 6.27013 40.416C7.60977 36.8311 9.32227 33.3969 11.3794 30.1698Z" fill="#1D1D1B"/>
<path d="M36.7769 24.7567C37.3449 24.3526 38.019 24.1241 38.7156 24.0994C39.8922 24.0994 40.4777 25.0605 40.4777 26.9716C40.4755 27.7266 40.3997 28.4795 40.2512 29.2197C40.1286 29.898 39.9626 30.5678 39.7541 31.2248C39.4861 31.9526 39.1611 32.6582 38.7819 33.3348C39.5307 32.9769 40.2336 32.5299 40.8754 32.0036C41.5419 31.4623 42.3041 30.7755 43.1621 29.9433L43.9023 29.275C44.1343 29.0927 44.2834 29.0154 44.3497 29.0374C44.416 29.0595 44.4546 29.1148 44.4546 29.2087C44.438 29.3754 44.3791 29.5351 44.2834 29.6727C44.2066 29.8152 44.1139 29.9486 44.0072 30.0704C43.0464 31.2404 41.9995 32.3371 40.8754 33.3514C39.9372 34.2092 38.8392 34.8736 37.6441 35.3067C37.1107 36.1016 36.5297 36.8634 35.9041 37.5879C35.045 38.5916 34.076 39.4957 33.0153 40.2835C32.01 41.0199 31.3582 41.3882 31.06 41.3882C30.5898 41.3541 30.142 41.1746 29.7785 40.8745C29.306 40.5281 28.8808 40.1214 28.5136 39.6648C28.2043 39.3065 27.9594 38.8972 27.79 38.4551C27.6086 37.8947 27.5136 37.3098 27.5083 36.7207C27.5151 36.186 27.5743 35.6532 27.6851 35.13C28.0094 33.4882 28.6309 31.9196 29.5189 30.5012C30.374 29.0355 31.4853 27.7353 32.7999 26.6623C33.6386 25.9672 34.6022 25.4385 35.639 25.1047C35.704 25.0792 35.7737 25.0679 35.8434 25.0715C35.9078 25.0694 35.9719 25.0806 36.0317 25.1044C36.0916 25.1281 36.1459 25.1639 36.1914 25.2096C36.3732 25.0421 36.5691 24.8906 36.7769 24.7567ZM33.634 34.4561C33.2205 33.7937 33.004 33.0274 33.0098 32.2466C33.0172 31.8055 33.0616 31.3658 33.1424 30.932C32.4795 31.8509 31.9236 32.8424 31.4853 33.8871C31.1049 34.7599 30.8949 35.6973 30.8666 36.6489C30.8314 37.0575 30.9345 37.466 31.1594 37.8089C31.2514 37.9263 31.37 38.0201 31.5054 38.0825C31.6409 38.1449 31.7892 38.1742 31.9382 38.1679C32.2577 38.1578 32.5709 38.0766 32.8551 37.9304C33.1889 37.767 33.4977 37.5569 33.772 37.3062C34.3659 36.7705 34.8959 36.1682 35.3518 35.5111C35.0051 35.4739 34.671 35.3599 34.3739 35.1774C34.0767 34.9949 33.824 34.7485 33.634 34.4561ZM38.3014 29.3247C38.4698 28.6916 38.5625 28.0408 38.5776 27.3859C38.5792 27.1106 38.5382 26.8367 38.456 26.5739C38.4313 26.4746 38.3861 26.3815 38.3234 26.3007C38.2606 26.2198 38.1816 26.153 38.0915 26.1044C37.9809 26.088 37.868 26.0953 37.7604 26.1258C37.6528 26.1562 37.5529 26.2092 37.4673 26.2812C37.205 26.4768 36.9725 26.7093 36.7769 26.9716C36.3109 27.7004 35.9396 28.4855 35.6722 29.3081C35.3992 30.0561 35.2481 30.8431 35.2247 31.6391C35.2064 32.1574 35.3125 32.6725 35.5341 33.1415C35.6238 33.3303 35.7592 33.4938 35.928 33.6172C36.0967 33.7407 36.2935 33.8201 36.5007 33.8485C37.0033 33.0158 37.4215 32.1351 37.749 31.2193C37.9313 30.6945 38.1136 30.0593 38.3014 29.3247Z" fill="#1D1D1B"/>
<path d="M52.8284 29.0651C52.9767 29.029 53.1288 29.0105 53.2814 29.0098C53.4637 29.0098 53.5576 29.0595 53.5576 29.1479C53.5576 29.2363 53.4305 29.3578 53.1764 29.4959C53.0383 29.5677 52.729 29.7168 52.2429 29.9433L50.9283 30.5675C50.0998 30.9136 49.2234 31.3297 48.2991 31.8158C47.1635 32.4069 46.0773 33.0885 45.0512 33.854C44.9573 34.3346 44.8634 35.1079 44.7751 36.1684C44.7706 36.4697 44.7467 36.7705 44.7033 37.0687C44.6149 37.9249 44.5265 38.5767 44.4436 39.0406C44.3654 39.5042 44.2318 39.9566 44.0459 40.3884C43.6818 41.2692 43.1139 42.051 42.3889 42.6696C41.7239 43.3 40.847 43.6586 39.9309 43.6749C38.8483 43.6749 38.3069 42.9256 38.3069 41.4268C38.3125 40.7948 38.4054 40.1665 38.5831 39.5599C39.0129 38.2095 39.7204 36.964 40.66 35.9033C41.0663 35.3613 41.5416 34.8748 42.074 34.4561C42.1267 32.6283 42.5006 30.824 43.1787 29.1258C43.538 28.2623 44.0529 27.4722 44.6977 26.7949C45.3356 26.0875 46.0813 25.4854 46.9072 25.0108C47.3867 24.7141 47.9005 24.4767 48.4372 24.3037C48.806 24.1757 49.1908 24.0994 49.5806 24.0773C49.8459 24.0903 50.0998 24.1892 50.3042 24.359C50.5824 24.6118 50.8012 24.923 50.9449 25.2704C51.0936 25.6197 51.1707 25.9954 51.1714 26.3751C51.1541 26.6553 51.1079 26.933 51.0333 27.2036C50.9984 27.2399 50.9687 27.2808 50.9449 27.3251C50.9177 27.3771 50.8753 27.4195 50.8234 27.4467H50.724L50.4423 27.3748C50.3539 27.2589 50.1108 27.2257 49.7187 27.2699C49.0112 27.3691 48.3556 27.697 47.8517 28.2034C47.0644 28.9373 46.43 29.8196 45.9847 30.7995C45.8466 31.0756 45.6588 31.512 45.4324 32.1141C46.6167 31.4621 47.8397 30.8829 49.0945 30.3797C50.2913 29.8936 51.4328 29.4885 52.5191 29.1645L52.8284 29.0651ZM41.0577 38.1127C40.7387 38.5656 40.5099 39.0757 40.3838 39.6151C40.3194 39.8643 40.2841 40.1201 40.2789 40.3774C40.2789 40.7916 40.3949 41.0015 40.6213 41.0015C40.7238 40.9904 40.8228 40.9581 40.9122 40.9068C41.0016 40.8554 41.0793 40.7861 41.1405 40.7032C41.339 40.4889 41.4929 40.2373 41.5935 39.9631C41.8971 39.1324 42.0378 38.2509 42.0077 37.367V36.7207C41.8907 36.9009 41.7634 37.0743 41.6266 37.24C41.5824 37.3118 41.3891 37.5935 41.0577 38.1127Z" fill="#1D1D1B"/>
<path d="M49.4811 40.8745C49.1353 40.5518 48.8393 40.1795 48.6028 39.7698C48.3704 39.3072 48.2512 38.7961 48.2548 38.2784C48.3006 37.3167 48.5491 36.3756 48.984 35.5166C49.7388 33.7859 50.6484 31.895 51.7126 29.8439C52.7768 27.7928 53.8263 25.8669 54.861 24.0663C55.0922 23.6151 55.3466 23.1763 55.6233 22.7516H55.3471C55.1166 22.7843 54.8838 22.7972 54.6511 22.7903C53.2482 22.7903 52.5411 22.3374 52.5411 21.4426C52.544 21.1825 52.5907 20.9248 52.6792 20.6803C52.7068 20.5778 52.7548 20.482 52.8203 20.3985C52.8858 20.3149 52.9674 20.2455 53.0604 20.1942L53.1653 20.1611C53.2603 20.1695 53.3507 20.206 53.4249 20.266C53.4979 20.316 53.5735 20.3621 53.6514 20.4041C54.1639 20.8291 54.8212 21.039 55.4852 20.9896C55.845 20.9911 56.2041 20.9559 56.5568 20.8847L56.6231 20.8184C57.7057 18.9772 58.7773 17.0863 59.8378 15.1457C59.9849 14.8734 60.1709 14.624 60.3901 14.4055C60.4767 14.3204 60.5795 14.2536 60.6924 14.209C60.8053 14.1644 60.9261 14.1429 61.0474 14.1459C61.6071 14.1833 62.1398 14.4003 62.5664 14.7645C63.0355 15.0706 63.3757 15.5385 63.522 16.0792V16.2504C63.5293 16.3576 63.515 16.4651 63.4799 16.5667C63.4448 16.6682 63.3896 16.7616 63.3176 16.8414C62.9067 17.3131 62.5249 17.8093 62.1743 18.3273L60.8983 20.1942C62.5996 20.1942 63.3821 20.7466 63.2458 21.8513C63.2001 22.0454 63.1257 22.2316 63.0249 22.4037C62.9404 22.5559 62.8138 22.6805 62.6603 22.7627H62.5885C62.3949 22.7397 62.2133 22.6566 62.0693 22.5252C61.7635 22.2737 61.4105 22.086 61.0311 21.9731C60.6516 21.8602 60.2534 21.8244 59.8599 21.8679C58.3354 24.2872 56.9177 26.7875 55.6067 29.3689C54.3845 31.744 53.3091 34.1919 52.3865 36.6987C52.3313 36.8189 52.2977 36.9479 52.2871 37.0798C52.2871 37.2455 52.3533 37.3228 52.4914 37.3228C52.7157 37.3032 52.9309 37.2252 53.1156 37.0964C53.3151 36.9866 53.5005 36.853 53.6679 36.6987C54.7017 35.7352 55.6618 34.6957 56.5402 33.5889C57.4129 32.4842 58.4735 31.0665 59.7218 29.3357C59.8599 29.1258 59.998 29.0264 60.1361 29.0264C60.2741 29.0264 60.2741 29.0817 60.2741 29.1977C60.2715 29.39 60.2242 29.5791 60.1361 29.75C60.0422 29.9433 59.9869 30.0649 59.9648 30.1146C58.7386 32.2577 57.6541 33.9976 56.7114 35.3344C55.472 37.1457 54.0343 38.813 52.4251 40.3056C51.6187 41.0457 51.0056 41.4103 50.5913 41.4103C50.3792 41.4029 50.171 41.3514 49.9798 41.2592C49.7887 41.1669 49.6189 41.0359 49.4811 40.8745Z" fill="#1D1D1B"/>
<path d="M68.7805 35.0968C67.1731 36.9965 65.3149 38.6689 63.2569 40.068C61.8981 40.9629 60.7879 41.4158 59.9428 41.4158C59.497 41.3589 59.074 41.1855 58.7165 40.9131C58.143 40.528 57.6341 40.0545 57.2086 39.5102C56.6366 38.8394 56.3284 37.9833 56.3414 37.1019C56.3565 36.7067 56.4027 36.3133 56.4795 35.9254C57.0988 32.2589 58.9994 28.9313 61.8429 26.5353C62.5834 25.8923 63.3951 25.3363 64.2622 24.8782C65.0048 24.4199 65.8492 24.1523 66.7202 24.0994C67.1204 24.1163 67.5058 24.2551 67.8249 24.4971C68.1987 24.7561 68.5116 25.0935 68.7418 25.4858C69.0819 26.0369 69.2617 26.672 69.261 27.3196C69.274 27.6271 69.2154 27.9334 69.0898 28.2144C68.9241 28.5845 68.6756 29.0595 68.3441 29.634C68.0384 30.1647 67.697 30.6741 67.3223 31.1585C67.256 31.269 67.0682 31.512 66.7699 31.8821C66.4492 32.2856 66.1023 32.6675 65.7315 33.0255C64.0781 34.5758 62.6051 35.3509 61.3126 35.3509C61.1303 35.3632 60.9474 35.3387 60.7747 35.2789C60.602 35.2191 60.443 35.1253 60.3073 35.0029C60.1453 35.6289 60.0072 36.2531 59.8931 36.8754C59.8687 37.0455 59.8576 37.2173 59.8599 37.3891C59.8268 37.7244 59.9259 38.0593 60.1361 38.3226C60.2396 38.4366 60.3687 38.5246 60.5126 38.5793C60.6566 38.634 60.8115 38.6539 60.9646 38.6374C61.5598 38.6082 62.1401 38.4419 62.6604 38.1514C63.7966 37.6248 64.8649 36.9627 65.842 36.1794C68.1923 34.2086 70.2527 31.9158 71.9621 29.3689C71.995 29.2835 72.0514 29.2093 72.1247 29.1546C72.198 29.0998 72.2852 29.0669 72.3763 29.0595C72.4702 29.0595 72.52 29.1148 72.52 29.2308C72.4527 29.5475 72.3352 29.8515 72.172 30.1311C71.2282 31.9065 70.0908 33.5718 68.7805 35.0968ZM67.2615 28.0101C67.3278 27.6179 67.2118 27.419 66.9135 27.419C66.6567 27.4426 66.4089 27.5259 66.1899 27.6621C65.0628 28.2813 64.0411 29.0755 63.163 30.0151C62.273 30.962 61.5435 32.0479 61.0033 33.2298C61.0033 33.2298 61.042 33.3072 61.1248 33.3845C61.1729 33.4286 61.2297 33.4622 61.2915 33.4831C61.3533 33.504 61.4188 33.5118 61.4839 33.506C61.8824 33.4466 62.261 33.2932 62.5886 33.0586C63.1118 32.7419 63.6087 32.3836 64.0744 31.987C64.945 31.2816 65.7227 30.4687 66.3888 29.5677C66.7554 29.0947 67.0496 28.5697 67.2615 28.0101Z" fill="#1D1D1B"/>
<path d="M82.12 32.7106C80.8606 33.5907 79.9087 34.0179 79.2643 33.9921C78.924 34.0013 78.5902 33.8985 78.3142 33.6994C78.0708 33.4618 77.8658 33.1879 77.7066 32.8874C77.5063 32.4897 77.4005 32.0512 77.3973 31.6059C77.3965 31.1496 77.5025 30.6994 77.7066 30.2913C78.1762 29.3941 78.7213 28.5386 79.3361 27.7339C77.2175 29.8738 75.2949 32.1994 73.5915 34.6826C73.1128 35.419 72.6286 36.231 72.1388 37.1185C71.6491 38.0059 71.2514 38.8013 70.9458 39.5046C70.6364 40.1896 70.4486 40.6094 70.3934 40.8027C70.2995 41.1949 70.1393 41.3937 69.9073 41.3937C69.5386 41.3436 69.1949 41.1794 68.9241 40.9242C68.5194 40.6122 68.1845 40.219 67.9409 39.7698C67.7296 39.3524 67.6234 38.8898 67.6316 38.422C67.6906 37.3993 67.9241 36.3943 68.3221 35.4503C68.9665 33.8154 69.8079 31.9944 70.8463 29.9875C71.7532 28.1865 72.8062 26.4629 73.9948 24.834C74.1325 24.6494 74.2962 24.4857 74.4808 24.3479C74.6368 24.2198 74.8314 24.1478 75.0332 24.1436C75.5771 24.1777 76.0916 24.4026 76.4859 24.7788C76.9207 25.1006 77.2371 25.5569 77.3862 26.0768C77.4093 26.1309 77.4206 26.1893 77.4194 26.2481C77.4117 26.4619 77.3384 26.6682 77.2095 26.8391C76.7939 27.2938 76.4136 27.7794 76.0716 28.2918C74.8089 30.0089 73.7418 31.8615 72.8901 33.8154C74.0412 31.9794 75.2991 30.2125 76.6571 28.5238C77.3936 27.5774 78.2001 26.6439 79.0765 25.7233C79.9529 24.8027 80.6893 24.2725 81.2859 24.1325C81.6093 24.1143 81.9286 24.2123 82.1862 24.4087C82.5579 24.6225 82.8769 24.917 83.1197 25.2704C83.4672 25.7163 83.661 26.2628 83.6721 26.828C83.6976 27.0816 83.6373 27.3364 83.5008 27.5516L81.8051 29.9378C81.6543 30.1507 81.5369 30.3854 81.4571 30.6338C81.3687 30.91 81.3798 31.1033 81.4958 31.2193C81.6118 31.3353 82.0923 31.28 82.8104 30.91C83.5285 30.5399 84.3294 30.0925 85.2297 29.5622L85.6771 29.2474C85.9533 29.1093 86.1411 29.0651 86.2295 29.1093C86.3179 29.1535 86.3013 29.1921 86.3013 29.2142C86.2705 29.3848 86.1781 29.5381 86.0417 29.6451C85.9181 29.776 85.7852 29.8978 85.644 30.0096C84.5503 30.9376 83.3756 31.8379 82.12 32.7106Z" fill="#1D1D1B"/>
<path d="M85.9533 55.5838C85.7766 56.2411 85.4009 55.9981 85.4009 55.6832C85.4009 55.3684 84.9535 54.9596 84.1581 54.4404C77.3807 50.4634 51.8176 50.2922 42.9964 50.5739C28.9555 50.9882 14.7765 52.6121 3.53045 54.0648C2.98039 54.1277 2.42576 54.1406 1.87337 54.1035C-0.374725 53.8604 -0.374725 51.3417 0.72999 51.06C1.08769 51.2237 1.48109 51.294 1.87337 51.2644C4.59555 51.1461 7.30854 50.8695 9.99856 50.4358C26.3925 48.0552 70.8353 44.1334 83.4069 50.1155C84.4361 50.5462 85.2675 51.3454 85.7385 52.3568C86.2094 53.3682 86.286 54.5189 85.9533 55.5838Z" fill="#1D1D1B"/>
</svg>
