<svg width="100" height="65" viewBox="0 0 100 65" fill="none" xmlns="http://www.w3.org/2000/svg">
<path d="M52.2695 12.4892C55.7244 12.4892 58.5253 9.6934 58.5253 6.2446C58.5253 2.7958 55.7244 0 52.2695 0C48.8145 0 46.0137 2.7958 46.0137 6.2446C46.0137 9.6934 48.8145 12.4892 52.2695 12.4892Z" fill="#0354F3"/>
<path d="M26.5335 6.93076C26.1782 7.40131 25.6822 7.74683 25.1172 7.91732C24.5522 8.08781 23.9474 8.07442 23.3906 7.87909C22.8337 7.68376 22.3535 7.31662 22.0195 6.8308C21.6855 6.34499 21.515 5.76569 21.5327 5.17673C21.5504 4.58778 21.7554 4.01972 22.1179 3.55477C22.4805 3.08981 22.9819 2.75206 23.5495 2.59041C24.1171 2.42875 24.7215 2.45157 25.2753 2.65557C25.8291 2.85956 26.3035 3.23414 26.6298 3.72511L25.7499 4.42394C25.6023 4.17132 25.3907 3.96191 25.1364 3.81675C24.882 3.67158 24.5939 3.59576 24.3009 3.5969C24.008 3.59804 23.7204 3.6761 23.4672 3.82324C23.214 3.97039 23.0041 4.18144 22.8585 4.4352C22.7128 4.68896 22.6366 4.9765 22.6375 5.26895C22.6384 5.5614 22.7164 5.84847 22.8636 6.10133C23.0108 6.3542 23.222 6.56395 23.4761 6.70954C23.7302 6.85512 24.0182 6.93142 24.3112 6.93076C24.7207 6.92882 25.1156 6.77845 25.4223 6.50761V6.18705H24.1378V5.0843H26.5463L26.5335 6.93076Z" fill="white"/>
<path d="M40.4645 8.03992H39.1799L38.2101 6.55891H37.3237V8.03992H36.2126V2.49415H38.2486C38.6924 2.49289 39.1245 2.63643 39.4791 2.90292C39.8336 3.16941 40.0913 3.54425 40.2127 3.97038C40.3342 4.39651 40.3128 4.85058 40.1518 5.26347C39.9909 5.67636 39.6992 6.02544 39.3212 6.25758L40.4645 8.03992ZM38.2229 5.4754C38.3444 5.4754 38.4646 5.45152 38.5768 5.40513C38.6891 5.35873 38.791 5.29072 38.8769 5.20499C38.9628 5.11927 39.0309 5.01749 39.0774 4.90548C39.1239 4.79347 39.1478 4.67341 39.1478 4.55218C39.1478 4.43094 39.1239 4.31088 39.0774 4.19887C39.0309 4.08686 38.9628 3.98508 38.8769 3.89936C38.791 3.81363 38.6891 3.74562 38.5768 3.69922C38.4646 3.65283 38.3444 3.62895 38.2229 3.62895H37.3237V5.44976L38.2229 5.4754Z" fill="white"/>
<path d="M53.6954 7.48198H50.8373L50.3363 8.40521H49.0517L52.2631 2.55811L55.4745 8.40521H54.1899L53.6954 7.48198ZM53.0917 6.37283L52.2695 4.86617L51.4474 6.37283H53.0917Z" fill="white"/>
<path d="M64.6783 2.49414H64.9737L68.3778 5.69979V2.49414H69.4889V8.03991H69.1871L65.7894 4.83426V8.03991H64.6783V2.49414Z" fill="white"/>
<path d="M79.5085 8.0397V2.49393H81.5702C81.9462 2.47587 82.322 2.53422 82.6748 2.66542C83.0275 2.79662 83.3499 2.99796 83.6225 3.25722C83.895 3.51648 84.1119 3.82828 84.2602 4.17371C84.4084 4.51914 84.4848 4.89102 84.4848 5.26682C84.4848 5.64261 84.4084 6.01449 84.2602 6.35992C84.1119 6.70535 83.895 7.01715 83.6225 7.27641C83.3499 7.53567 83.0275 7.73701 82.6748 7.86821C82.322 7.99941 81.9462 8.05776 81.5702 8.0397H79.5085ZM81.5702 6.93055C81.7977 6.94466 82.0258 6.91209 82.2403 6.83486C82.4548 6.75763 82.6512 6.63738 82.8173 6.4815C82.9835 6.32563 83.1159 6.13744 83.2064 5.92853C83.2969 5.71962 83.3436 5.49442 83.3436 5.26682C83.3436 5.03921 83.2969 4.81401 83.2064 4.6051C83.1159 4.3962 82.9835 4.208 82.8173 4.05213C82.6512 3.89625 82.4548 3.776 82.2403 3.69877C82.0258 3.62154 81.7977 3.58897 81.5702 3.60308H80.6453V6.93055H81.5702Z" fill="white"/>
<path d="M13.2319 35.0186C15.6681 30.991 18.4169 27.1603 21.4531 23.5616C21.6937 23.231 22.0082 22.9609 22.3717 22.7728C22.7351 22.5847 23.1375 22.4838 23.5469 22.4781C24.1725 22.4896 24.778 22.7008 25.2746 23.0808C25.6135 23.2662 25.8964 23.5388 26.0941 23.8703C26.2917 24.2017 26.3969 24.58 26.3986 24.9657C26.4136 25.2781 26.3433 25.5887 26.1951 25.8643C26.0469 26.1398 25.8264 26.37 25.5572 26.5301C24.8036 26.9874 23.7332 28.1585 22.3458 30.0435C20.9585 31.9284 19.3164 34.2364 17.4196 36.9677C19.1489 36.9129 20.858 36.5795 22.4807 35.9803C24.735 35.2148 26.858 34.1076 28.775 32.6977C31.8787 30.4371 34.2484 27.3158 35.5896 23.7219C35.9806 22.7566 36.1981 21.7301 36.2319 20.6894C36.2319 18.5822 34.9987 17.5265 32.5323 17.5222C30.1773 17.5222 27.4434 18.2915 24.3305 19.8303C21.1625 21.4076 18.2363 23.4283 15.6405 25.8312C13.2178 27.9566 11.2515 30.5497 9.85997 33.4543C9.65634 33.8811 9.51365 34.3343 9.43607 34.8006C9.32218 35.218 9.28948 35.6533 9.33973 36.0829V36.2047C9.34589 36.2681 9.33921 36.332 9.3201 36.3927C9.30098 36.4535 9.26982 36.5097 9.22847 36.5582C9.18712 36.6066 9.13643 36.6463 9.0794 36.6748C9.02238 36.7033 8.9602 36.72 8.89656 36.724C8.67097 36.7754 8.44067 36.8033 8.20932 36.8074C7.28777 36.8042 6.38998 36.5152 5.64021 35.9803C5.27964 35.781 4.97669 35.4921 4.76066 35.1417C4.54464 34.7913 4.42284 34.3911 4.40704 33.98C4.50349 32.1225 5.1544 30.3362 6.27607 28.851C7.56324 26.9675 9.07273 25.2454 10.772 23.7219C12.2776 22.3244 13.8975 21.0549 15.6148 19.9264C18.146 18.2923 20.8879 17.009 23.7653 16.1117C26.5026 15.2362 29.3562 14.7759 32.2305 14.7461C34.7996 14.7461 36.8035 15.4086 38.2422 16.7336C38.9481 17.3847 39.5056 18.1796 39.8768 19.0645C40.248 19.9495 40.4244 20.9037 40.3938 21.8626C40.3687 23.269 40.0812 24.6583 39.546 25.9595C38.3028 28.9408 36.277 31.5323 33.682 33.4607C30.9741 35.5746 27.9362 37.2294 24.6901 38.3589C21.9085 39.3949 18.9744 39.9647 16.0066 40.0451H15.9616C15.815 40.466 15.6323 40.8736 15.4157 41.2632C14.2596 43.5328 13.2598 45.6058 12.4162 47.4822C11.7124 48.8929 11.2438 50.4088 11.0289 51.9701C11.0246 52.1443 11.0397 52.3185 11.0739 52.4894L11.1124 52.8549C11.1072 53.0308 11.0791 53.2054 11.0289 53.3742C10.9979 53.4591 10.9501 53.5369 10.8883 53.603C10.8265 53.6691 10.752 53.7221 10.6692 53.7588C10.481 53.8494 10.2744 53.8954 10.0655 53.8935C9.57766 53.8822 9.09796 53.7663 8.65892 53.5537C8.10611 53.2886 7.63393 52.8815 7.29087 52.374C6.85723 51.6918 6.64629 50.8921 6.68713 50.0852C6.70606 49.0007 6.91024 47.9275 7.29087 46.9116C8.8486 42.7505 10.8399 38.7644 13.2319 35.0186Z" fill="white"/>
<path d="M42.7638 28.7356C43.4243 28.2666 44.2081 28.0013 45.0182 27.9727C46.3862 27.9727 47.067 29.0882 47.067 31.3065C47.0645 32.1828 46.9764 33.0568 46.8037 33.9159C46.6612 34.7033 46.4681 35.4806 46.2257 36.2432C45.9141 37.0881 45.5361 37.907 45.0953 38.6923C45.966 38.2769 46.7833 37.7581 47.5295 37.1472C48.3045 36.5189 49.1908 35.7218 50.1885 34.7558L51.0492 33.98C51.3189 33.7685 51.4923 33.6787 51.5694 33.7044C51.6465 33.73 51.6914 33.7941 51.6914 33.9031C51.6721 34.0966 51.6036 34.282 51.4923 34.4417C51.403 34.6071 51.2953 34.7619 51.1712 34.9033C50.0539 36.2614 48.8366 37.5343 47.5295 38.7116C46.4386 39.7072 45.1619 40.4785 43.7722 40.9812C43.152 41.9038 42.4764 42.788 41.749 43.629C40.75 44.794 39.6232 45.8434 38.3899 46.7578C37.2209 47.6126 36.4631 48.04 36.1162 48.04C35.5696 48.0005 35.0488 47.7921 34.6261 47.4438C34.0767 47.0417 33.5823 46.5697 33.1553 46.0397C32.7956 45.6238 32.511 45.1487 32.314 44.6356C32.103 43.9851 31.9925 43.3062 31.9864 42.6225C31.9943 42.0018 32.0631 41.3833 32.1919 40.776C32.5691 38.8705 33.2917 37.0497 34.3243 35.4034C35.3186 33.7022 36.6108 32.1929 38.1394 30.9475C39.1146 30.1407 40.2351 29.5271 41.4407 29.1395C41.5163 29.11 41.5973 29.0969 41.6783 29.101C41.7532 29.0986 41.8277 29.1116 41.8974 29.1392C41.967 29.1668 42.0302 29.2083 42.083 29.2613C42.2944 29.0669 42.5222 28.891 42.7638 28.7356ZM39.1092 39.9938C38.6285 39.225 38.3768 38.3356 38.3835 37.4293C38.3921 36.9173 38.4437 36.4069 38.5376 35.9034C37.7669 36.97 37.1204 38.1208 36.6108 39.3335C36.1685 40.3465 35.9243 41.4346 35.8914 42.5391C35.8504 43.0133 35.9703 43.4875 36.2318 43.8855C36.3388 44.0218 36.4767 44.1306 36.6342 44.2031C36.7917 44.2756 36.9642 44.3095 37.1374 44.3022C37.5089 44.2904 37.8731 44.1963 38.2036 44.0265C38.5917 43.8369 38.9508 43.593 39.2698 43.3021C39.9603 42.6803 40.5767 41.9811 41.1067 41.2184C40.7036 41.1752 40.3151 41.0429 39.9696 40.831C39.6241 40.6192 39.3302 40.3332 39.1092 39.9938ZM44.5365 34.0377C44.7323 33.3029 44.8401 32.5475 44.8576 31.7874C44.8595 31.4678 44.8118 31.1499 44.7163 30.8449C44.6876 30.7296 44.635 30.6216 44.562 30.5277C44.489 30.4339 44.3972 30.3563 44.2924 30.3C44.1638 30.2809 44.0326 30.2894 43.9075 30.3247C43.7823 30.3601 43.6662 30.4216 43.5666 30.5051C43.2616 30.7321 42.9912 31.0021 42.7638 31.3065C42.2219 32.1524 41.7903 33.0637 41.4792 34.0185C41.1618 34.8867 40.9861 35.8002 40.959 36.7241C40.9377 37.3257 41.061 37.9237 41.3187 38.468C41.4231 38.6871 41.5805 38.8769 41.7767 39.0202C41.9729 39.1634 42.2018 39.2557 42.4427 39.2886C43.0271 38.3221 43.5134 37.2998 43.8942 36.2368C44.1061 35.6277 44.3181 34.8904 44.5365 34.0377Z" fill="white"/>
<path d="M61.4284 33.7362C61.6008 33.6944 61.7776 33.6728 61.9551 33.6721C62.167 33.6721 62.2762 33.7298 62.2762 33.8324C62.2762 33.9349 62.1285 34.076 61.833 34.2363C61.6725 34.3196 61.3128 34.4927 60.7476 34.7556L59.219 35.4801C58.2555 35.8818 57.2365 36.3648 56.1617 36.929C54.8412 37.615 53.5783 38.4062 52.3851 39.2948C52.2759 39.8526 52.1668 40.7501 52.064 41.9811C52.0589 42.3309 52.031 42.68 51.9805 43.0262C51.8777 44.0199 51.775 44.7764 51.6786 45.315C51.5876 45.853 51.4323 46.3782 51.2162 46.8793C50.7927 47.9016 50.1324 48.8091 49.2894 49.5272C48.5161 50.2589 47.4965 50.6752 46.4312 50.6941C45.1724 50.6941 44.5429 49.8243 44.5429 48.0847C44.5494 47.351 44.6574 46.6218 44.8641 45.9177C45.3638 44.3503 46.1864 42.9046 47.279 41.6734C47.7514 41.0443 48.3042 40.4796 48.9233 39.9936C48.9845 37.872 49.4193 35.7778 50.2078 33.8067C50.6256 32.8045 51.2243 31.8874 51.9741 31.1011C52.7158 30.2801 53.5829 29.5812 54.5432 29.0303C55.1008 28.686 55.6982 28.4104 56.3223 28.2096C56.7511 28.061 57.1986 27.9725 57.6518 27.9468C57.9603 27.9619 58.2556 28.0767 58.4932 28.2738C58.8167 28.5672 59.0712 28.9284 59.2382 29.3316C59.4112 29.7371 59.5007 30.1732 59.5016 30.6139C59.4815 30.9391 59.4277 31.2614 59.341 31.5756C59.3005 31.6177 59.2659 31.6652 59.2382 31.7166C59.2067 31.7769 59.1573 31.8261 59.0969 31.8577H58.9813L58.6538 31.7743C58.551 31.6397 58.2684 31.6012 57.8124 31.6525C56.9897 31.7677 56.2274 32.1482 55.6415 32.736C54.7261 33.5879 53.9883 34.6119 53.4706 35.7493C53.31 36.0699 53.0916 36.5764 52.8283 37.2752C54.2055 36.5185 55.6276 35.8462 57.0866 35.2621C58.4782 34.6979 59.8056 34.2277 61.0687 33.8516L61.4284 33.7362ZM47.7415 44.2379C47.3705 44.7636 47.1045 45.3556 46.9579 45.9818C46.8829 46.271 46.842 46.5679 46.8359 46.8665C46.8359 47.3474 46.9707 47.591 47.2341 47.591C47.3532 47.5781 47.4684 47.5406 47.5723 47.481C47.6762 47.4215 47.7666 47.341 47.8378 47.2448C48.0685 46.996 48.2475 46.704 48.3645 46.3857C48.7175 45.4215 48.8811 44.3984 48.8462 43.3724V42.6222C48.7101 42.8314 48.5621 43.0326 48.403 43.2249C48.3516 43.3082 48.1268 43.6352 47.7415 44.2379Z" fill="white"/>
<path d="M57.5362 47.4435C57.1341 47.0689 56.7899 46.6368 56.515 46.1613C56.2447 45.6244 56.106 45.0311 56.1103 44.4302C56.1635 43.314 56.4524 42.2216 56.9581 41.2246C57.8359 39.2157 58.8935 37.0209 60.131 34.6402C61.3684 32.2594 62.5888 30.024 63.792 27.934C64.0607 27.4103 64.3565 26.901 64.6783 26.4081H64.3572C64.0892 26.4459 63.8184 26.4609 63.5479 26.4529C61.9165 26.4529 61.0944 25.9272 61.0944 24.8886C61.0977 24.5868 61.152 24.2876 61.255 24.0038C61.2871 23.8849 61.3429 23.7736 61.419 23.6767C61.4951 23.5798 61.5901 23.4991 61.6981 23.4396L61.8202 23.4012C61.9307 23.411 62.0358 23.4534 62.122 23.523C62.2069 23.581 62.2948 23.6345 62.3854 23.6833C62.9813 24.1766 63.7456 24.4202 64.5177 24.3629C64.9361 24.3646 65.3536 24.3237 65.7637 24.241L65.8408 24.1641C67.0997 22.027 68.3457 19.8322 69.5789 17.5797C69.7499 17.2636 69.9663 16.9742 70.2211 16.7206C70.3218 16.6218 70.4413 16.5442 70.5726 16.4925C70.7039 16.4407 70.8443 16.4158 70.9854 16.4193C71.6363 16.4627 72.2557 16.7145 72.7517 17.1373C73.2972 17.4925 73.6927 18.0357 73.8628 18.6632V18.862C73.8714 18.9864 73.8547 19.1112 73.8139 19.2291C73.773 19.3469 73.7089 19.4554 73.6252 19.548C73.1474 20.0954 72.7034 20.6714 72.2957 21.2726L70.812 23.4396C72.7902 23.4396 73.7001 24.0808 73.5417 25.363C73.4886 25.5883 73.402 25.8044 73.2848 26.0042C73.1865 26.1808 73.0394 26.3255 72.8609 26.4209H72.7774C72.5522 26.3942 72.3411 26.2978 72.1737 26.1452C71.8181 25.8533 71.4076 25.6354 70.9664 25.5044C70.5252 25.3734 70.0621 25.3318 69.6046 25.3823C67.8319 28.1904 66.1834 31.0926 64.659 34.0888C63.2378 36.8457 61.9873 39.6869 60.9146 42.5966C60.8504 42.7362 60.8113 42.8859 60.7989 43.039C60.7989 43.2313 60.876 43.3211 61.0366 43.3211C61.2974 43.2983 61.5476 43.2077 61.7624 43.0582C61.9943 42.9308 62.21 42.7758 62.4046 42.5966C63.6066 41.4783 64.723 40.2718 65.7445 38.987C66.7593 37.7048 67.9924 36.0592 69.444 34.0503C69.6046 33.8067 69.7651 33.6913 69.9257 33.6913C70.0863 33.6913 70.0863 33.7554 70.0863 33.89C70.0832 34.1133 70.0282 34.3328 69.9257 34.5312C69.8165 34.7556 69.7523 34.8966 69.7266 34.9543C68.3007 37.4419 67.0397 39.4615 65.9436 41.013C64.5023 43.1154 62.8306 45.0508 60.9595 46.7832C60.0218 47.6423 59.3089 48.0654 58.8272 48.0654C58.5805 48.0568 58.3384 47.9971 58.1161 47.89C57.8939 47.7829 57.6964 47.6309 57.5362 47.4435Z" fill="white"/>
<path d="M79.9773 40.7376C78.1082 42.9426 75.9475 44.8837 73.5546 46.5077C71.9746 47.5464 70.6836 48.0721 69.7009 48.0721C69.1825 48.006 68.6907 47.8048 68.275 47.4886C67.6081 47.0416 67.0163 46.492 66.5216 45.8602C65.8565 45.0816 65.4981 44.088 65.5132 43.0649C65.5308 42.6061 65.5845 42.1495 65.6738 41.6992C66.3939 37.4435 68.6039 33.5811 71.9103 30.8C72.7713 30.0537 73.7152 29.4084 74.7235 28.8766C75.587 28.3447 76.5688 28.0341 77.5816 27.9727C78.0469 27.9924 78.4951 28.1534 78.8662 28.4343C79.3008 28.735 79.6647 29.1266 79.9324 29.5819C80.3278 30.2216 80.5369 30.9587 80.5361 31.7104C80.5512 32.0674 80.483 32.4229 80.337 32.7491C80.1443 33.1786 79.8553 33.73 79.4699 34.3968C79.1145 35.0128 78.7175 35.604 78.2817 36.1663C78.2046 36.2945 77.9863 36.5766 77.6394 37.0062C77.2665 37.4745 76.8631 37.9178 76.432 38.3333C74.5094 40.1328 72.7967 41.0325 71.2937 41.0325C71.0817 41.0467 70.869 41.0183 70.6682 40.9489C70.4674 40.8795 70.2826 40.7706 70.1248 40.6286C69.9364 41.3552 69.7758 42.0797 69.6431 42.802C69.6148 42.9994 69.6019 43.1988 69.6046 43.3982C69.566 43.7874 69.6813 44.1762 69.9257 44.4817C70.0461 44.6141 70.1961 44.7162 70.3635 44.7797C70.5309 44.8432 70.711 44.8663 70.8891 44.8472C71.5811 44.8133 72.256 44.6202 72.8609 44.283C74.1821 43.6718 75.4242 42.9033 76.5604 41.9942C79.2934 39.7066 81.6892 37.0453 83.6768 34.089C83.7152 33.99 83.7807 33.9038 83.8659 33.8403C83.9511 33.7768 84.0525 33.7386 84.1585 33.73C84.2677 33.73 84.3255 33.7941 84.3255 33.9288C84.2473 34.2964 84.1107 34.6492 83.9209 34.9738C82.8235 37.0345 81.5009 38.9675 79.9773 40.7376ZM78.2111 32.5119C78.2881 32.0567 78.1533 31.8258 77.8064 31.8258C77.5078 31.8532 77.2197 31.9498 76.965 32.1079C75.6544 32.8267 74.4664 33.7486 73.4454 34.8392C72.4105 35.9383 71.5622 37.1986 70.9341 38.5705C70.9341 38.5705 70.979 38.6603 71.0754 38.75C71.1313 38.8012 71.1973 38.8402 71.2692 38.8645C71.3411 38.8888 71.4173 38.8978 71.4928 38.8911C71.9562 38.8221 72.3965 38.6441 72.7774 38.3718C73.3859 38.0042 73.9636 37.5883 74.5051 37.128C75.5175 36.3092 76.4217 35.3657 77.1963 34.3198C77.6226 33.7708 77.9646 33.1615 78.2111 32.5119Z" fill="white"/>
<path d="M95.4883 37.9675C94.0239 38.9891 92.9171 39.4849 92.1678 39.455C91.7722 39.4657 91.384 39.3463 91.063 39.1152C90.78 38.8395 90.5417 38.5215 90.3565 38.1727C90.1236 37.7111 90.0005 37.2021 89.9969 36.6853C89.996 36.1556 90.1191 35.6331 90.3565 35.1594C90.9025 34.118 91.5364 33.1249 92.2513 32.191C89.7878 34.6748 87.5523 37.3741 85.5716 40.2564C85.0149 41.1112 84.4519 42.0537 83.8824 43.0838C83.3129 44.1138 82.8505 45.0371 82.4951 45.8534C82.1354 46.6484 81.917 47.1357 81.8528 47.3601C81.7436 47.8153 81.5573 48.0461 81.2876 48.0461C80.8589 47.9879 80.4592 47.7974 80.1443 47.5011C79.6738 47.139 79.2843 46.6826 79.0011 46.1612C78.7554 45.6768 78.6319 45.1397 78.6414 44.5968C78.71 43.4098 78.9815 42.2432 79.4443 41.1476C80.1936 39.2498 81.172 37.1362 82.3795 34.8068C83.434 32.7164 84.6584 30.7157 86.0404 28.825C86.2006 28.6107 86.3909 28.4207 86.6056 28.2608C86.787 28.1121 87.0132 28.0286 87.2479 28.0236C87.8804 28.0632 88.4786 28.3243 88.9371 28.7609C89.4426 29.1345 89.8106 29.664 89.984 30.2676C90.0108 30.3303 90.024 30.3981 90.0226 30.4663C90.0136 30.7146 89.9284 30.954 89.7785 31.1523C89.2953 31.6801 88.853 32.2438 88.4554 32.8385C86.9871 34.8316 85.7463 36.982 84.7559 39.2498C86.0944 37.1187 87.5571 35.0679 89.1362 33.1078C89.9926 32.0093 90.9303 30.9258 91.9494 29.8573C92.9685 28.7887 93.8248 28.1732 94.5185 28.0108C94.8946 27.9897 95.2659 28.1033 95.5654 28.3314C95.9976 28.5795 96.3685 28.9213 96.6508 29.3315C97.0549 29.8492 97.2802 30.4834 97.2931 31.1395C97.3228 31.4338 97.2527 31.7296 97.094 31.9794L95.1222 34.7491C94.9469 34.9962 94.8104 35.2686 94.7176 35.5569C94.6148 35.8775 94.6277 36.1019 94.7625 36.2365C94.8974 36.3711 95.4562 36.307 96.2912 35.8775C97.1261 35.4479 98.0574 34.9286 99.1043 34.3131L99.6246 33.9477C99.9457 33.7874 100.164 33.7361 100.267 33.7874C100.37 33.8387 100.35 33.8835 100.35 33.9092C100.315 34.1072 100.207 34.2852 100.048 34.4093C99.9047 34.5612 99.7502 34.7027 99.586 34.8324C98.3143 35.9095 96.9484 36.9546 95.4883 37.9675Z" fill="white"/>
<path d="M99.9457 64.517C99.7402 65.28 99.3034 64.9979 99.3034 64.6325C99.3034 64.267 98.7832 63.7926 97.8583 63.1899C89.9776 58.5738 60.253 58.375 49.9958 58.702C33.6692 59.1828 17.1819 61.0678 4.10518 62.7539C3.46557 62.8269 2.82066 62.842 2.17835 62.7988C-0.43572 62.5167 -0.43572 59.5932 0.848833 59.2662C1.26477 59.4563 1.72221 59.5379 2.17835 59.5034C5.34367 59.3662 8.49831 59.045 11.6262 58.5417C30.689 55.7785 82.3666 51.2264 96.9848 58.1699C98.1815 58.6698 99.1483 59.5975 99.6959 60.7714C100.244 61.9454 100.333 63.281 99.9457 64.517Z" fill="white"/>
</svg>
